<?xml version="1.0" encoding="utf-8" standalone="no"?>
<!DOCTYPE svg PUBLIC "-//W3C//DTD SVG 1.1//EN"
  "http://www.w3.org/Graphics/SVG/1.1/DTD/svg11.dtd">
<svg xmlns:xlink="http://www.w3.org/1999/xlink" width="402.802812pt" height="310.86825pt" viewBox="0 0 402.802812 310.86825" xmlns="http://www.w3.org/2000/svg" version="1.1">
 <metadata>
  <rdf:RDF xmlns:dc="http://purl.org/dc/elements/1.1/" xmlns:cc="http://creativecommons.org/ns#" xmlns:rdf="http://www.w3.org/1999/02/22-rdf-syntax-ns#">
   <cc:Work>
    <dc:type rdf:resource="http://purl.org/dc/dcmitype/StillImage"/>
    <dc:date>2025-02-05T20:13:11.930979</dc:date>
    <dc:format>image/svg+xml</dc:format>
    <dc:creator>
     <cc:Agent>
      <dc:title>Matplotlib v3.5.3, https://matplotlib.org/</dc:title>
     </cc:Agent>
    </dc:creator>
   </cc:Work>
  </rdf:RDF>
 </metadata>
 <defs>
  <style type="text/css">*{stroke-linejoin: round; stroke-linecap: butt}</style>
 </defs>
 <g id="figure_1">
  <g id="patch_1">
   <path d="M 0 310.86825 
L 402.802812 310.86825 
L 402.802812 0 
L 0 0 
z
" style="fill: #ffffff"/>
  </g>
  <g id="axes_1">
   <g id="patch_2">
    <path d="M 38.482813 273.312 
L 395.602813 273.312 
L 395.602813 7.2 
L 38.482813 7.2 
z
" style="fill: #ffffff"/>
   </g>
   <g id="PolyCollection_1">
    <path d="M 264.593226 19.296 
L 264.593226 261.216 
L 267.872565 261.216 
L 271.151903 261.216 
L 274.431242 261.216 
L 277.710581 261.216 
L 280.98992 261.216 
L 284.269259 261.216 
L 287.548598 261.216 
L 290.827936 261.216 
L 294.107275 261.216 
L 297.386614 261.216 
L 300.665953 261.216 
L 303.945292 261.216 
L 307.224631 261.216 
L 310.50397 261.216 
L 313.783308 261.216 
L 317.062647 261.216 
L 320.341986 261.216 
L 323.621325 261.216 
L 326.900664 261.216 
L 330.180003 261.216 
L 333.459341 261.216 
L 336.73868 261.216 
L 340.018019 261.216 
L 343.297358 261.216 
L 346.576697 261.216 
L 349.856036 261.216 
L 353.135374 261.216 
L 356.414713 261.216 
L 359.694052 261.216 
L 362.973391 261.216 
L 366.25273 261.216 
L 369.532069 261.216 
L 372.811408 261.216 
L 376.090746 261.216 
L 379.370085 261.216 
L 379.370085 19.296 
L 379.370085 19.296 
L 376.090746 19.296 
L 372.811408 19.296 
L 369.532069 19.296 
L 366.25273 19.296 
L 362.973391 19.296 
L 359.694052 19.296 
L 356.414713 19.296 
L 353.135374 19.296 
L 349.856036 19.296 
L 346.576697 19.296 
L 343.297358 19.296 
L 340.018019 19.296 
L 336.73868 19.296 
L 333.459341 19.296 
L 330.180003 19.296 
L 326.900664 19.296 
L 323.621325 19.296 
L 320.341986 19.296 
L 317.062647 19.296 
L 313.783308 19.296 
L 310.50397 19.296 
L 307.224631 19.296 
L 303.945292 19.296 
L 300.665953 19.296 
L 297.386614 19.296 
L 294.107275 19.296 
L 290.827936 19.296 
L 287.548598 19.296 
L 284.269259 19.296 
L 280.98992 19.296 
L 277.710581 19.296 
L 274.431242 19.296 
L 271.151903 19.296 
L 267.872565 19.296 
L 264.593226 19.296 
z
" clip-path="url(#p9b949111b3)" style="fill: #800080; fill-opacity: 0.2"/>
   </g>
   <g id="PolyCollection_2">
    <path d="M 54.71554 19.296 
L 54.71554 261.216 
L 57.994879 261.216 
L 61.274217 261.216 
L 64.553556 261.216 
L 67.832895 261.216 
L 71.112234 261.216 
L 74.391573 261.216 
L 77.670912 261.216 
L 80.950251 261.216 
L 84.229589 261.216 
L 87.508928 261.216 
L 90.788267 261.216 
L 94.067606 261.216 
L 97.346945 261.216 
L 100.626284 261.216 
L 103.905622 261.216 
L 107.184961 261.216 
L 110.4643 261.216 
L 113.743639 261.216 
L 117.022978 261.216 
L 120.302317 261.216 
L 123.581655 261.216 
L 126.860994 261.216 
L 130.140333 261.216 
L 133.419672 261.216 
L 136.699011 261.216 
L 139.97835 261.216 
L 143.257689 261.216 
L 146.537027 261.216 
L 149.816366 261.216 
L 153.095705 261.216 
L 156.375044 261.216 
L 159.654383 261.216 
L 162.933722 261.216 
L 166.21306 261.216 
L 169.492399 261.216 
L 172.771738 261.216 
L 176.051077 261.216 
L 179.330416 261.216 
L 182.609755 261.216 
L 185.889093 261.216 
L 189.168432 261.216 
L 192.447771 261.216 
L 195.72711 261.216 
L 199.006449 261.216 
L 202.285788 261.216 
L 205.565127 261.216 
L 208.844465 261.216 
L 212.123804 261.216 
L 215.403143 261.216 
L 218.682482 261.216 
L 221.961821 261.216 
L 221.961821 19.296 
L 221.961821 19.296 
L 218.682482 19.296 
L 215.403143 19.296 
L 212.123804 19.296 
L 208.844465 19.296 
L 205.565127 19.296 
L 202.285788 19.296 
L 199.006449 19.296 
L 195.72711 19.296 
L 192.447771 19.296 
L 189.168432 19.296 
L 185.889093 19.296 
L 182.609755 19.296 
L 179.330416 19.296 
L 176.051077 19.296 
L 172.771738 19.296 
L 169.492399 19.296 
L 166.21306 19.296 
L 162.933722 19.296 
L 159.654383 19.296 
L 156.375044 19.296 
L 153.095705 19.296 
L 149.816366 19.296 
L 146.537027 19.296 
L 143.257689 19.296 
L 139.97835 19.296 
L 136.699011 19.296 
L 133.419672 19.296 
L 130.140333 19.296 
L 126.860994 19.296 
L 123.581655 19.296 
L 120.302317 19.296 
L 117.022978 19.296 
L 113.743639 19.296 
L 110.4643 19.296 
L 107.184961 19.296 
L 103.905622 19.296 
L 100.626284 19.296 
L 97.346945 19.296 
L 94.067606 19.296 
L 90.788267 19.296 
L 87.508928 19.296 
L 84.229589 19.296 
L 80.950251 19.296 
L 77.670912 19.296 
L 74.391573 19.296 
L 71.112234 19.296 
L 67.832895 19.296 
L 64.553556 19.296 
L 61.274217 19.296 
L 57.994879 19.296 
L 54.71554 19.296 
z
" clip-path="url(#p9b949111b3)" style="fill: #ffa500; fill-opacity: 0.2"/>
   </g>
   <g id="PolyCollection_3">
    <path d="M 271.151903 23.540211 
L 271.151903 261.216 
L 274.431242 261.216 
L 277.710581 261.216 
L 280.98992 261.216 
L 284.269259 261.216 
L 287.548598 261.216 
L 290.827936 261.216 
L 294.107275 261.216 
L 297.386614 261.216 
L 300.665953 261.216 
L 300.665953 23.540211 
L 300.665953 23.540211 
L 297.386614 23.540211 
L 294.107275 23.540211 
L 290.827936 23.540211 
L 287.548598 23.540211 
L 284.269259 23.540211 
L 280.98992 23.540211 
L 277.710581 23.540211 
L 274.431242 23.540211 
L 271.151903 23.540211 
z
" clip-path="url(#p9b949111b3)" style="fill: #008000; fill-opacity: 0.3"/>
   </g>
   <g id="PolyCollection_4">
    <path d="M 228.520498 23.540211 
L 228.520498 261.216 
L 231.799837 261.216 
L 235.079176 261.216 
L 238.358515 261.216 
L 241.637854 261.216 
L 244.917193 261.216 
L 248.196532 261.216 
L 251.47587 261.216 
L 254.755209 261.216 
L 258.034548 261.216 
L 258.034548 23.540211 
L 258.034548 23.540211 
L 254.755209 23.540211 
L 251.47587 23.540211 
L 248.196532 23.540211 
L 244.917193 23.540211 
L 241.637854 23.540211 
L 238.358515 23.540211 
L 235.079176 23.540211 
L 231.799837 23.540211 
L 228.520498 23.540211 
z
" clip-path="url(#p9b949111b3)" style="fill: #ff0000; fill-opacity: 0.3"/>
   </g>
   <g id="matplotlib.axis_1">
    <g id="xtick_1">
     <g id="line2d_1">
      <path d="M 54.71554 273.312 
L 54.71554 7.2 
" clip-path="url(#p9b949111b3)" style="fill: none; stroke: #b0b0b0; stroke-width: 0.8; stroke-linecap: square"/>
     </g>
     <g id="line2d_2">
      <defs>
       <path id="m762fd688f3" d="M 0 0 
L 0 3.5 
" style="stroke: #000000; stroke-width: 0.8"/>
      </defs>
      <g>
       <use xlink:href="#m762fd688f3" x="54.71554" y="273.312" style="stroke: #000000; stroke-width: 0.8"/>
      </g>
     </g>
     <g id="text_1">
      <!-- 0.0 -->
      <g transform="translate(46.763977 287.910437)scale(0.1 -0.1)">
       <defs>
        <path id="DejaVuSans-30" d="M 2034 4250 
Q 1547 4250 1301 3770 
Q 1056 3291 1056 2328 
Q 1056 1369 1301 889 
Q 1547 409 2034 409 
Q 2525 409 2770 889 
Q 3016 1369 3016 2328 
Q 3016 3291 2770 3770 
Q 2525 4250 2034 4250 
z
M 2034 4750 
Q 2819 4750 3233 4129 
Q 3647 3509 3647 2328 
Q 3647 1150 3233 529 
Q 2819 -91 2034 -91 
Q 1250 -91 836 529 
Q 422 1150 422 2328 
Q 422 3509 836 4129 
Q 1250 4750 2034 4750 
z
" transform="scale(0.015625)"/>
        <path id="DejaVuSans-2e" d="M 684 794 
L 1344 794 
L 1344 0 
L 684 0 
L 684 794 
z
" transform="scale(0.015625)"/>
       </defs>
       <use xlink:href="#DejaVuSans-30"/>
       <use xlink:href="#DejaVuSans-2e" x="63.623047"/>
       <use xlink:href="#DejaVuSans-30" x="95.410156"/>
      </g>
     </g>
    </g>
    <g id="xtick_2">
     <g id="line2d_3">
      <path d="M 108.824631 273.312 
L 108.824631 7.2 
" clip-path="url(#p9b949111b3)" style="fill: none; stroke: #b0b0b0; stroke-width: 0.8; stroke-linecap: square"/>
     </g>
     <g id="line2d_4">
      <g>
       <use xlink:href="#m762fd688f3" x="108.824631" y="273.312" style="stroke: #000000; stroke-width: 0.8"/>
      </g>
     </g>
     <g id="text_2">
      <!-- 0.5 -->
      <g transform="translate(100.873068 287.910437)scale(0.1 -0.1)">
       <defs>
        <path id="DejaVuSans-35" d="M 691 4666 
L 3169 4666 
L 3169 4134 
L 1269 4134 
L 1269 2991 
Q 1406 3038 1543 3061 
Q 1681 3084 1819 3084 
Q 2600 3084 3056 2656 
Q 3513 2228 3513 1497 
Q 3513 744 3044 326 
Q 2575 -91 1722 -91 
Q 1428 -91 1123 -41 
Q 819 9 494 109 
L 494 744 
Q 775 591 1075 516 
Q 1375 441 1709 441 
Q 2250 441 2565 725 
Q 2881 1009 2881 1497 
Q 2881 1984 2565 2268 
Q 2250 2553 1709 2553 
Q 1456 2553 1204 2497 
Q 953 2441 691 2322 
L 691 4666 
z
" transform="scale(0.015625)"/>
       </defs>
       <use xlink:href="#DejaVuSans-30"/>
       <use xlink:href="#DejaVuSans-2e" x="63.623047"/>
       <use xlink:href="#DejaVuSans-35" x="95.410156"/>
      </g>
     </g>
    </g>
    <g id="xtick_3">
     <g id="line2d_5">
      <path d="M 162.933722 273.312 
L 162.933722 7.2 
" clip-path="url(#p9b949111b3)" style="fill: none; stroke: #b0b0b0; stroke-width: 0.8; stroke-linecap: square"/>
     </g>
     <g id="line2d_6">
      <g>
       <use xlink:href="#m762fd688f3" x="162.933722" y="273.312" style="stroke: #000000; stroke-width: 0.8"/>
      </g>
     </g>
     <g id="text_3">
      <!-- 1.0 -->
      <g transform="translate(154.982159 287.910437)scale(0.1 -0.1)">
       <defs>
        <path id="DejaVuSans-31" d="M 794 531 
L 1825 531 
L 1825 4091 
L 703 3866 
L 703 4441 
L 1819 4666 
L 2450 4666 
L 2450 531 
L 3481 531 
L 3481 0 
L 794 0 
L 794 531 
z
" transform="scale(0.015625)"/>
       </defs>
       <use xlink:href="#DejaVuSans-31"/>
       <use xlink:href="#DejaVuSans-2e" x="63.623047"/>
       <use xlink:href="#DejaVuSans-30" x="95.410156"/>
      </g>
     </g>
    </g>
    <g id="xtick_4">
     <g id="line2d_7">
      <path d="M 217.042812 273.312 
L 217.042812 7.2 
" clip-path="url(#p9b949111b3)" style="fill: none; stroke: #b0b0b0; stroke-width: 0.8; stroke-linecap: square"/>
     </g>
     <g id="line2d_8">
      <g>
       <use xlink:href="#m762fd688f3" x="217.042812" y="273.312" style="stroke: #000000; stroke-width: 0.8"/>
      </g>
     </g>
     <g id="text_4">
      <!-- 1.5 -->
      <g transform="translate(209.09125 287.910437)scale(0.1 -0.1)">
       <use xlink:href="#DejaVuSans-31"/>
       <use xlink:href="#DejaVuSans-2e" x="63.623047"/>
       <use xlink:href="#DejaVuSans-35" x="95.410156"/>
      </g>
     </g>
    </g>
    <g id="xtick_5">
     <g id="line2d_9">
      <path d="M 271.151903 273.312 
L 271.151903 7.2 
" clip-path="url(#p9b949111b3)" style="fill: none; stroke: #b0b0b0; stroke-width: 0.8; stroke-linecap: square"/>
     </g>
     <g id="line2d_10">
      <g>
       <use xlink:href="#m762fd688f3" x="271.151903" y="273.312" style="stroke: #000000; stroke-width: 0.8"/>
      </g>
     </g>
     <g id="text_5">
      <!-- 2.0 -->
      <g transform="translate(263.200341 287.910437)scale(0.1 -0.1)">
       <defs>
        <path id="DejaVuSans-32" d="M 1228 531 
L 3431 531 
L 3431 0 
L 469 0 
L 469 531 
Q 828 903 1448 1529 
Q 2069 2156 2228 2338 
Q 2531 2678 2651 2914 
Q 2772 3150 2772 3378 
Q 2772 3750 2511 3984 
Q 2250 4219 1831 4219 
Q 1534 4219 1204 4116 
Q 875 4013 500 3803 
L 500 4441 
Q 881 4594 1212 4672 
Q 1544 4750 1819 4750 
Q 2544 4750 2975 4387 
Q 3406 4025 3406 3419 
Q 3406 3131 3298 2873 
Q 3191 2616 2906 2266 
Q 2828 2175 2409 1742 
Q 1991 1309 1228 531 
z
" transform="scale(0.015625)"/>
       </defs>
       <use xlink:href="#DejaVuSans-32"/>
       <use xlink:href="#DejaVuSans-2e" x="63.623047"/>
       <use xlink:href="#DejaVuSans-30" x="95.410156"/>
      </g>
     </g>
    </g>
    <g id="xtick_6">
     <g id="line2d_11">
      <path d="M 325.260994 273.312 
L 325.260994 7.2 
" clip-path="url(#p9b949111b3)" style="fill: none; stroke: #b0b0b0; stroke-width: 0.8; stroke-linecap: square"/>
     </g>
     <g id="line2d_12">
      <g>
       <use xlink:href="#m762fd688f3" x="325.260994" y="273.312" style="stroke: #000000; stroke-width: 0.8"/>
      </g>
     </g>
     <g id="text_6">
      <!-- 2.5 -->
      <g transform="translate(317.309432 287.910437)scale(0.1 -0.1)">
       <use xlink:href="#DejaVuSans-32"/>
       <use xlink:href="#DejaVuSans-2e" x="63.623047"/>
       <use xlink:href="#DejaVuSans-35" x="95.410156"/>
      </g>
     </g>
    </g>
    <g id="xtick_7">
     <g id="line2d_13">
      <path d="M 379.370085 273.312 
L 379.370085 7.2 
" clip-path="url(#p9b949111b3)" style="fill: none; stroke: #b0b0b0; stroke-width: 0.8; stroke-linecap: square"/>
     </g>
     <g id="line2d_14">
      <g>
       <use xlink:href="#m762fd688f3" x="379.370085" y="273.312" style="stroke: #000000; stroke-width: 0.8"/>
      </g>
     </g>
     <g id="text_7">
      <!-- 3.0 -->
      <g transform="translate(371.418523 287.910437)scale(0.1 -0.1)">
       <defs>
        <path id="DejaVuSans-33" d="M 2597 2516 
Q 3050 2419 3304 2112 
Q 3559 1806 3559 1356 
Q 3559 666 3084 287 
Q 2609 -91 1734 -91 
Q 1441 -91 1130 -33 
Q 819 25 488 141 
L 488 750 
Q 750 597 1062 519 
Q 1375 441 1716 441 
Q 2309 441 2620 675 
Q 2931 909 2931 1356 
Q 2931 1769 2642 2001 
Q 2353 2234 1838 2234 
L 1294 2234 
L 1294 2753 
L 1863 2753 
Q 2328 2753 2575 2939 
Q 2822 3125 2822 3475 
Q 2822 3834 2567 4026 
Q 2313 4219 1838 4219 
Q 1578 4219 1281 4162 
Q 984 4106 628 3988 
L 628 4550 
Q 988 4650 1302 4700 
Q 1616 4750 1894 4750 
Q 2613 4750 3031 4423 
Q 3450 4097 3450 3541 
Q 3450 3153 3228 2886 
Q 3006 2619 2597 2516 
z
" transform="scale(0.015625)"/>
       </defs>
       <use xlink:href="#DejaVuSans-33"/>
       <use xlink:href="#DejaVuSans-2e" x="63.623047"/>
       <use xlink:href="#DejaVuSans-30" x="95.410156"/>
      </g>
     </g>
    </g>
    <g id="text_8">
     <!-- x(t) -->
     <g transform="translate(208.221719 301.588562)scale(0.1 -0.1)">
      <defs>
       <path id="DejaVuSans-78" d="M 3513 3500 
L 2247 1797 
L 3578 0 
L 2900 0 
L 1881 1375 
L 863 0 
L 184 0 
L 1544 1831 
L 300 3500 
L 978 3500 
L 1906 2253 
L 2834 3500 
L 3513 3500 
z
" transform="scale(0.015625)"/>
       <path id="DejaVuSans-28" d="M 1984 4856 
Q 1566 4138 1362 3434 
Q 1159 2731 1159 2009 
Q 1159 1288 1364 580 
Q 1569 -128 1984 -844 
L 1484 -844 
Q 1016 -109 783 600 
Q 550 1309 550 2009 
Q 550 2706 781 3412 
Q 1013 4119 1484 4856 
L 1984 4856 
z
" transform="scale(0.015625)"/>
       <path id="DejaVuSans-74" d="M 1172 4494 
L 1172 3500 
L 2356 3500 
L 2356 3053 
L 1172 3053 
L 1172 1153 
Q 1172 725 1289 603 
Q 1406 481 1766 481 
L 2356 481 
L 2356 0 
L 1766 0 
Q 1100 0 847 248 
Q 594 497 594 1153 
L 594 3053 
L 172 3053 
L 172 3500 
L 594 3500 
L 594 4494 
L 1172 4494 
z
" transform="scale(0.015625)"/>
       <path id="DejaVuSans-29" d="M 513 4856 
L 1013 4856 
Q 1481 4119 1714 3412 
Q 1947 2706 1947 2009 
Q 1947 1309 1714 600 
Q 1481 -109 1013 -844 
L 513 -844 
Q 928 -128 1133 580 
Q 1338 1288 1338 2009 
Q 1338 2731 1133 3434 
Q 928 4138 513 4856 
z
" transform="scale(0.015625)"/>
      </defs>
      <use xlink:href="#DejaVuSans-78"/>
      <use xlink:href="#DejaVuSans-28" x="59.179688"/>
      <use xlink:href="#DejaVuSans-74" x="98.193359"/>
      <use xlink:href="#DejaVuSans-29" x="137.402344"/>
     </g>
    </g>
   </g>
   <g id="matplotlib.axis_2">
    <g id="ytick_1">
     <g id="line2d_15">
      <path d="M 38.482813 256.971789 
L 395.602813 256.971789 
" clip-path="url(#p9b949111b3)" style="fill: none; stroke: #b0b0b0; stroke-width: 0.8; stroke-linecap: square"/>
     </g>
     <g id="line2d_16">
      <defs>
       <path id="mcd560266a4" d="M 0 0 
L -3.5 0 
" style="stroke: #000000; stroke-width: 0.8"/>
      </defs>
      <g>
       <use xlink:href="#mcd560266a4" x="38.482813" y="256.971789" style="stroke: #000000; stroke-width: 0.8"/>
      </g>
     </g>
     <g id="text_9">
      <!-- −1.5 -->
      <g transform="translate(7.2 260.771008)scale(0.1 -0.1)">
       <defs>
        <path id="DejaVuSans-2212" d="M 678 2272 
L 4684 2272 
L 4684 1741 
L 678 1741 
L 678 2272 
z
" transform="scale(0.015625)"/>
       </defs>
       <use xlink:href="#DejaVuSans-2212"/>
       <use xlink:href="#DejaVuSans-31" x="83.789062"/>
       <use xlink:href="#DejaVuSans-2e" x="147.412109"/>
       <use xlink:href="#DejaVuSans-35" x="179.199219"/>
      </g>
     </g>
    </g>
    <g id="ytick_2">
     <g id="line2d_17">
      <path d="M 38.482813 223.018105 
L 395.602813 223.018105 
" clip-path="url(#p9b949111b3)" style="fill: none; stroke: #b0b0b0; stroke-width: 0.8; stroke-linecap: square"/>
     </g>
     <g id="line2d_18">
      <g>
       <use xlink:href="#mcd560266a4" x="38.482813" y="223.018105" style="stroke: #000000; stroke-width: 0.8"/>
      </g>
     </g>
     <g id="text_10">
      <!-- −1.0 -->
      <g transform="translate(7.2 226.817324)scale(0.1 -0.1)">
       <use xlink:href="#DejaVuSans-2212"/>
       <use xlink:href="#DejaVuSans-31" x="83.789062"/>
       <use xlink:href="#DejaVuSans-2e" x="147.412109"/>
       <use xlink:href="#DejaVuSans-30" x="179.199219"/>
      </g>
     </g>
    </g>
    <g id="ytick_3">
     <g id="line2d_19">
      <path d="M 38.482813 189.064421 
L 395.602813 189.064421 
" clip-path="url(#p9b949111b3)" style="fill: none; stroke: #b0b0b0; stroke-width: 0.8; stroke-linecap: square"/>
     </g>
     <g id="line2d_20">
      <g>
       <use xlink:href="#mcd560266a4" x="38.482813" y="189.064421" style="stroke: #000000; stroke-width: 0.8"/>
      </g>
     </g>
     <g id="text_11">
      <!-- −0.5 -->
      <g transform="translate(7.2 192.86364)scale(0.1 -0.1)">
       <use xlink:href="#DejaVuSans-2212"/>
       <use xlink:href="#DejaVuSans-30" x="83.789062"/>
       <use xlink:href="#DejaVuSans-2e" x="147.412109"/>
       <use xlink:href="#DejaVuSans-35" x="179.199219"/>
      </g>
     </g>
    </g>
    <g id="ytick_4">
     <g id="line2d_21">
      <path d="M 38.482813 155.110737 
L 395.602813 155.110737 
" clip-path="url(#p9b949111b3)" style="fill: none; stroke: #b0b0b0; stroke-width: 0.8; stroke-linecap: square"/>
     </g>
     <g id="line2d_22">
      <g>
       <use xlink:href="#mcd560266a4" x="38.482813" y="155.110737" style="stroke: #000000; stroke-width: 0.8"/>
      </g>
     </g>
     <g id="text_12">
      <!-- 0.0 -->
      <g transform="translate(15.579688 158.909956)scale(0.1 -0.1)">
       <use xlink:href="#DejaVuSans-30"/>
       <use xlink:href="#DejaVuSans-2e" x="63.623047"/>
       <use xlink:href="#DejaVuSans-30" x="95.410156"/>
      </g>
     </g>
    </g>
    <g id="ytick_5">
     <g id="line2d_23">
      <path d="M 38.482813 121.157053 
L 395.602813 121.157053 
" clip-path="url(#p9b949111b3)" style="fill: none; stroke: #b0b0b0; stroke-width: 0.8; stroke-linecap: square"/>
     </g>
     <g id="line2d_24">
      <g>
       <use xlink:href="#mcd560266a4" x="38.482813" y="121.157053" style="stroke: #000000; stroke-width: 0.8"/>
      </g>
     </g>
     <g id="text_13">
      <!-- 0.5 -->
      <g transform="translate(15.579688 124.956271)scale(0.1 -0.1)">
       <use xlink:href="#DejaVuSans-30"/>
       <use xlink:href="#DejaVuSans-2e" x="63.623047"/>
       <use xlink:href="#DejaVuSans-35" x="95.410156"/>
      </g>
     </g>
    </g>
    <g id="ytick_6">
     <g id="line2d_25">
      <path d="M 38.482813 87.203368 
L 395.602813 87.203368 
" clip-path="url(#p9b949111b3)" style="fill: none; stroke: #b0b0b0; stroke-width: 0.8; stroke-linecap: square"/>
     </g>
     <g id="line2d_26">
      <g>
       <use xlink:href="#mcd560266a4" x="38.482813" y="87.203368" style="stroke: #000000; stroke-width: 0.8"/>
      </g>
     </g>
     <g id="text_14">
      <!-- 1.0 -->
      <g transform="translate(15.579688 91.002587)scale(0.1 -0.1)">
       <use xlink:href="#DejaVuSans-31"/>
       <use xlink:href="#DejaVuSans-2e" x="63.623047"/>
       <use xlink:href="#DejaVuSans-30" x="95.410156"/>
      </g>
     </g>
    </g>
    <g id="ytick_7">
     <g id="line2d_27">
      <path d="M 38.482813 53.249684 
L 395.602813 53.249684 
" clip-path="url(#p9b949111b3)" style="fill: none; stroke: #b0b0b0; stroke-width: 0.8; stroke-linecap: square"/>
     </g>
     <g id="line2d_28">
      <g>
       <use xlink:href="#mcd560266a4" x="38.482813" y="53.249684" style="stroke: #000000; stroke-width: 0.8"/>
      </g>
     </g>
     <g id="text_15">
      <!-- 1.5 -->
      <g transform="translate(15.579688 57.048903)scale(0.1 -0.1)">
       <use xlink:href="#DejaVuSans-31"/>
       <use xlink:href="#DejaVuSans-2e" x="63.623047"/>
       <use xlink:href="#DejaVuSans-35" x="95.410156"/>
      </g>
     </g>
    </g>
    <g id="ytick_8">
     <g id="line2d_29">
      <path d="M 38.482813 19.296 
L 395.602813 19.296 
" clip-path="url(#p9b949111b3)" style="fill: none; stroke: #b0b0b0; stroke-width: 0.8; stroke-linecap: square"/>
     </g>
     <g id="line2d_30">
      <g>
       <use xlink:href="#mcd560266a4" x="38.482813" y="19.296" style="stroke: #000000; stroke-width: 0.8"/>
      </g>
     </g>
     <g id="text_16">
      <!-- 2.0 -->
      <g transform="translate(15.579688 23.095219)scale(0.1 -0.1)">
       <use xlink:href="#DejaVuSans-32"/>
       <use xlink:href="#DejaVuSans-2e" x="63.623047"/>
       <use xlink:href="#DejaVuSans-30" x="95.410156"/>
      </g>
     </g>
    </g>
   </g>
   <g id="line2d_31">
    <path d="M 54.71554 23.540211 
L 57.994879 25.59801 
L 61.274217 27.655809 
L 64.553556 29.713608 
L 67.832895 31.771407 
L 71.112234 33.829206 
L 74.391573 35.887005 
L 77.670912 37.944804 
L 80.950251 40.002603 
L 84.229589 42.060402 
L 87.508928 44.118201 
L 90.788267 46.176 
L 94.067606 48.233799 
L 97.346945 50.291598 
L 100.626284 52.349397 
L 103.905622 54.407196 
L 107.184961 56.464995 
L 110.4643 58.522794 
L 113.743639 60.580593 
L 117.022978 62.638392 
L 120.302317 64.696191 
L 123.581655 66.75399 
L 126.860994 68.811789 
L 130.140333 70.869589 
L 133.419672 72.927388 
L 136.699011 74.985187 
L 139.97835 77.042986 
L 143.257689 79.100785 
L 146.537027 81.158584 
L 149.816366 83.216383 
L 153.095705 85.274182 
L 156.375044 87.331981 
L 159.654383 89.38978 
L 162.933722 91.447579 
L 166.21306 93.505378 
L 169.492399 95.563177 
L 172.771738 97.620976 
L 176.051077 99.678775 
L 179.330416 101.736574 
L 182.609755 103.794373 
L 185.889093 105.852172 
L 189.168432 107.909971 
L 192.447771 109.96777 
L 195.72711 112.025569 
L 199.006449 114.083368 
L 202.285788 116.141167 
L 205.565127 118.198967 
L 208.844465 120.256766 
L 212.123804 122.314565 
L 215.403143 124.372364 
L 218.682482 126.430163 
L 221.961821 128.487962 
L 225.24116 130.545761 
L 228.520498 132.60356 
L 231.799837 134.661359 
L 235.079176 136.719158 
L 238.358515 138.776957 
L 241.637854 140.834756 
L 244.917193 142.892555 
L 248.196532 144.950354 
L 251.47587 147.008153 
L 254.755209 149.065952 
L 258.034548 151.123751 
L 261.313887 153.18155 
L 264.593226 155.239349 
L 267.872565 157.297148 
L 271.151903 159.354947 
L 274.431242 161.412746 
L 277.710581 163.470545 
L 280.98992 165.528344 
L 284.269259 167.586144 
L 287.548598 169.643943 
L 290.827936 171.701742 
L 294.107275 173.759541 
L 297.386614 175.81734 
L 300.665953 177.875139 
L 303.945292 179.932938 
L 307.224631 181.990737 
L 310.50397 184.048536 
L 313.783308 186.106335 
L 317.062647 188.164134 
L 320.341986 190.221933 
L 323.621325 192.279732 
L 326.900664 194.337531 
L 330.180003 196.39533 
L 333.459341 198.453129 
L 336.73868 200.510928 
L 340.018019 202.568727 
L 343.297358 204.626526 
L 346.576697 206.684325 
L 349.856036 208.742124 
L 353.135374 210.799923 
L 356.414713 212.857722 
L 359.694052 214.915522 
L 362.973391 216.973321 
L 366.25273 219.03112 
L 369.532069 221.088919 
L 372.811408 223.146718 
L 376.090746 225.204517 
L 379.370085 227.262316 
" clip-path="url(#p9b949111b3)" style="fill: none; stroke: #0000ff; stroke-width: 1.5; stroke-linecap: square"/>
   </g>
   <g id="line2d_32">
    <path d="M 54.71554 261.216 
L 57.994879 259.158201 
L 61.274217 257.100402 
L 64.553556 255.042603 
L 67.832895 252.984804 
L 71.112234 250.927005 
L 74.391573 248.869206 
L 77.670912 246.811407 
L 80.950251 244.753608 
L 84.229589 242.695809 
L 87.508928 240.63801 
L 90.788267 238.580211 
L 94.067606 236.522411 
L 97.346945 234.464612 
L 100.626284 232.406813 
L 103.905622 230.349014 
L 107.184961 228.291215 
L 110.4643 226.233416 
L 113.743639 224.175617 
L 117.022978 222.117818 
L 120.302317 220.060019 
L 123.581655 218.00222 
L 126.860994 215.944421 
L 130.140333 213.886622 
L 133.419672 211.828823 
L 136.699011 209.771024 
L 139.97835 207.713225 
L 143.257689 205.655426 
L 146.537027 203.597627 
L 149.816366 201.539828 
L 153.095705 199.482029 
L 156.375044 197.42423 
L 159.654383 195.366431 
L 162.933722 193.308632 
L 166.21306 191.250833 
L 169.492399 189.193033 
L 172.771738 187.135234 
L 176.051077 185.077435 
L 179.330416 183.019636 
L 182.609755 180.961837 
L 185.889093 178.904038 
L 189.168432 176.846239 
L 192.447771 174.78844 
L 195.72711 172.730641 
L 199.006449 170.672842 
L 202.285788 168.615043 
L 205.565127 166.557244 
L 208.844465 164.499445 
L 212.123804 162.441646 
L 215.403143 160.383847 
L 218.682482 158.326048 
L 221.961821 156.268249 
L 225.24116 154.21045 
L 228.520498 152.152651 
L 231.799837 150.094852 
L 235.079176 148.037053 
L 238.358515 145.979254 
L 241.637854 143.921455 
L 244.917193 141.863656 
L 248.196532 139.805856 
L 251.47587 137.748057 
L 254.755209 135.690258 
L 258.034548 133.632459 
L 261.313887 131.57466 
L 264.593226 129.516861 
L 267.872565 127.459062 
L 271.151903 125.401263 
L 274.431242 123.343464 
L 277.710581 121.285665 
L 280.98992 119.227866 
L 284.269259 117.170067 
L 287.548598 115.112268 
L 290.827936 113.054469 
L 294.107275 110.99667 
L 297.386614 108.938871 
L 300.665953 106.881072 
L 303.945292 104.823273 
L 307.224631 102.765474 
L 310.50397 100.707675 
L 313.783308 98.649876 
L 317.062647 96.592077 
L 320.341986 94.534278 
L 323.621325 92.476478 
L 326.900664 90.418679 
L 330.180003 88.36088 
L 333.459341 86.303081 
L 336.73868 84.245282 
L 340.018019 82.187483 
L 343.297358 80.129684 
L 346.576697 78.071885 
L 349.856036 76.014086 
L 353.135374 73.956287 
L 356.414713 71.898488 
L 359.694052 69.840689 
L 362.973391 67.78289 
L 366.25273 65.725091 
L 369.532069 63.667292 
L 372.811408 61.609493 
L 376.090746 59.551694 
L 379.370085 57.493895 
" clip-path="url(#p9b949111b3)" style="fill: none; stroke: #bf00bf; stroke-width: 1.5; stroke-linecap: square"/>
   </g>
   <g id="line2d_33">
    <path d="M 38.482813 155.110737 
L 395.602813 155.110737 
" clip-path="url(#p9b949111b3)" style="fill: none; stroke: #000000; stroke-width: 1.5; stroke-linecap: square"/>
   </g>
   <g id="patch_3">
    <path d="M 38.482813 273.312 
L 38.482813 7.2 
" style="fill: none; stroke: #000000; stroke-width: 0.8; stroke-linejoin: miter; stroke-linecap: square"/>
   </g>
   <g id="patch_4">
    <path d="M 395.602813 273.312 
L 395.602813 7.2 
" style="fill: none; stroke: #000000; stroke-width: 0.8; stroke-linejoin: miter; stroke-linecap: square"/>
   </g>
   <g id="patch_5">
    <path d="M 38.482813 273.312 
L 395.602813 273.312 
" style="fill: none; stroke: #000000; stroke-width: 0.8; stroke-linejoin: miter; stroke-linecap: square"/>
   </g>
   <g id="patch_6">
    <path d="M 38.482813 7.2 
L 395.602813 7.2 
" style="fill: none; stroke: #000000; stroke-width: 0.8; stroke-linejoin: miter; stroke-linecap: square"/>
   </g>
   <g id="legend_1">
    <g id="patch_7">
     <path d="M 45.482813 73.9125 
L 112.15 73.9125 
Q 114.15 73.9125 114.15 71.9125 
L 114.15 14.2 
Q 114.15 12.2 112.15 12.2 
L 45.482813 12.2 
Q 43.482813 12.2 43.482813 14.2 
L 43.482813 71.9125 
Q 43.482813 73.9125 45.482813 73.9125 
z
" style="fill: #ffffff; opacity: 0.8; stroke: #cccccc; stroke-linejoin: miter"/>
    </g>
    <g id="line2d_34">
     <path d="M 47.482813 20.298437 
L 57.482813 20.298437 
L 67.482813 20.298437 
" style="fill: none; stroke: #0000ff; stroke-width: 1.5; stroke-linecap: square"/>
    </g>
    <g id="text_17">
     <!-- B0 -->
     <g transform="translate(75.482813 23.798437)scale(0.1 -0.1)">
      <defs>
       <path id="DejaVuSans-42" d="M 1259 2228 
L 1259 519 
L 2272 519 
Q 2781 519 3026 730 
Q 3272 941 3272 1375 
Q 3272 1813 3026 2020 
Q 2781 2228 2272 2228 
L 1259 2228 
z
M 1259 4147 
L 1259 2741 
L 2194 2741 
Q 2656 2741 2882 2914 
Q 3109 3088 3109 3444 
Q 3109 3797 2882 3972 
Q 2656 4147 2194 4147 
L 1259 4147 
z
M 628 4666 
L 2241 4666 
Q 2963 4666 3353 4366 
Q 3744 4066 3744 3513 
Q 3744 3084 3544 2831 
Q 3344 2578 2956 2516 
Q 3422 2416 3680 2098 
Q 3938 1781 3938 1306 
Q 3938 681 3513 340 
Q 3088 0 2303 0 
L 628 0 
L 628 4666 
z
" transform="scale(0.015625)"/>
      </defs>
      <use xlink:href="#DejaVuSans-42"/>
      <use xlink:href="#DejaVuSans-30" x="68.603516"/>
     </g>
    </g>
    <g id="line2d_35">
     <path d="M 47.482813 34.976562 
L 57.482813 34.976562 
L 67.482813 34.976562 
" style="fill: none; stroke: #bf00bf; stroke-width: 1.5; stroke-linecap: square"/>
    </g>
    <g id="text_18">
     <!-- B1 -->
     <g transform="translate(75.482813 38.476562)scale(0.1 -0.1)">
      <use xlink:href="#DejaVuSans-42"/>
      <use xlink:href="#DejaVuSans-31" x="68.603516"/>
     </g>
    </g>
    <g id="patch_8">
     <path d="M 47.482813 53.154687 
L 67.482813 53.154687 
L 67.482813 46.154687 
L 47.482813 46.154687 
z
" style="fill: #008000; fill-opacity: 0.3"/>
    </g>
    <g id="text_19">
     <!-- Initial -->
     <g transform="translate(75.482813 53.154687)scale(0.1 -0.1)">
      <defs>
       <path id="DejaVuSans-49" d="M 628 4666 
L 1259 4666 
L 1259 0 
L 628 0 
L 628 4666 
z
" transform="scale(0.015625)"/>
       <path id="DejaVuSans-6e" d="M 3513 2113 
L 3513 0 
L 2938 0 
L 2938 2094 
Q 2938 2591 2744 2837 
Q 2550 3084 2163 3084 
Q 1697 3084 1428 2787 
Q 1159 2491 1159 1978 
L 1159 0 
L 581 0 
L 581 3500 
L 1159 3500 
L 1159 2956 
Q 1366 3272 1645 3428 
Q 1925 3584 2291 3584 
Q 2894 3584 3203 3211 
Q 3513 2838 3513 2113 
z
" transform="scale(0.015625)"/>
       <path id="DejaVuSans-69" d="M 603 3500 
L 1178 3500 
L 1178 0 
L 603 0 
L 603 3500 
z
M 603 4863 
L 1178 4863 
L 1178 4134 
L 603 4134 
L 603 4863 
z
" transform="scale(0.015625)"/>
       <path id="DejaVuSans-61" d="M 2194 1759 
Q 1497 1759 1228 1600 
Q 959 1441 959 1056 
Q 959 750 1161 570 
Q 1363 391 1709 391 
Q 2188 391 2477 730 
Q 2766 1069 2766 1631 
L 2766 1759 
L 2194 1759 
z
M 3341 1997 
L 3341 0 
L 2766 0 
L 2766 531 
Q 2569 213 2275 61 
Q 1981 -91 1556 -91 
Q 1019 -91 701 211 
Q 384 513 384 1019 
Q 384 1609 779 1909 
Q 1175 2209 1959 2209 
L 2766 2209 
L 2766 2266 
Q 2766 2663 2505 2880 
Q 2244 3097 1772 3097 
Q 1472 3097 1187 3025 
Q 903 2953 641 2809 
L 641 3341 
Q 956 3463 1253 3523 
Q 1550 3584 1831 3584 
Q 2591 3584 2966 3190 
Q 3341 2797 3341 1997 
z
" transform="scale(0.015625)"/>
       <path id="DejaVuSans-6c" d="M 603 4863 
L 1178 4863 
L 1178 0 
L 603 0 
L 603 4863 
z
" transform="scale(0.015625)"/>
      </defs>
      <use xlink:href="#DejaVuSans-49"/>
      <use xlink:href="#DejaVuSans-6e" x="29.492188"/>
      <use xlink:href="#DejaVuSans-69" x="92.871094"/>
      <use xlink:href="#DejaVuSans-74" x="120.654297"/>
      <use xlink:href="#DejaVuSans-69" x="159.863281"/>
      <use xlink:href="#DejaVuSans-61" x="187.646484"/>
      <use xlink:href="#DejaVuSans-6c" x="248.925781"/>
     </g>
    </g>
    <g id="patch_9">
     <path d="M 47.482813 67.832812 
L 67.482813 67.832812 
L 67.482813 60.832812 
L 47.482813 60.832812 
z
" style="fill: #ff0000; fill-opacity: 0.3"/>
    </g>
    <g id="text_20">
     <!-- Unsafe -->
     <g transform="translate(75.482813 67.832812)scale(0.1 -0.1)">
      <defs>
       <path id="DejaVuSans-55" d="M 556 4666 
L 1191 4666 
L 1191 1831 
Q 1191 1081 1462 751 
Q 1734 422 2344 422 
Q 2950 422 3222 751 
Q 3494 1081 3494 1831 
L 3494 4666 
L 4128 4666 
L 4128 1753 
Q 4128 841 3676 375 
Q 3225 -91 2344 -91 
Q 1459 -91 1007 375 
Q 556 841 556 1753 
L 556 4666 
z
" transform="scale(0.015625)"/>
       <path id="DejaVuSans-73" d="M 2834 3397 
L 2834 2853 
Q 2591 2978 2328 3040 
Q 2066 3103 1784 3103 
Q 1356 3103 1142 2972 
Q 928 2841 928 2578 
Q 928 2378 1081 2264 
Q 1234 2150 1697 2047 
L 1894 2003 
Q 2506 1872 2764 1633 
Q 3022 1394 3022 966 
Q 3022 478 2636 193 
Q 2250 -91 1575 -91 
Q 1294 -91 989 -36 
Q 684 19 347 128 
L 347 722 
Q 666 556 975 473 
Q 1284 391 1588 391 
Q 1994 391 2212 530 
Q 2431 669 2431 922 
Q 2431 1156 2273 1281 
Q 2116 1406 1581 1522 
L 1381 1569 
Q 847 1681 609 1914 
Q 372 2147 372 2553 
Q 372 3047 722 3315 
Q 1072 3584 1716 3584 
Q 2034 3584 2315 3537 
Q 2597 3491 2834 3397 
z
" transform="scale(0.015625)"/>
       <path id="DejaVuSans-66" d="M 2375 4863 
L 2375 4384 
L 1825 4384 
Q 1516 4384 1395 4259 
Q 1275 4134 1275 3809 
L 1275 3500 
L 2222 3500 
L 2222 3053 
L 1275 3053 
L 1275 0 
L 697 0 
L 697 3053 
L 147 3053 
L 147 3500 
L 697 3500 
L 697 3744 
Q 697 4328 969 4595 
Q 1241 4863 1831 4863 
L 2375 4863 
z
" transform="scale(0.015625)"/>
       <path id="DejaVuSans-65" d="M 3597 1894 
L 3597 1613 
L 953 1613 
Q 991 1019 1311 708 
Q 1631 397 2203 397 
Q 2534 397 2845 478 
Q 3156 559 3463 722 
L 3463 178 
Q 3153 47 2828 -22 
Q 2503 -91 2169 -91 
Q 1331 -91 842 396 
Q 353 884 353 1716 
Q 353 2575 817 3079 
Q 1281 3584 2069 3584 
Q 2775 3584 3186 3129 
Q 3597 2675 3597 1894 
z
M 3022 2063 
Q 3016 2534 2758 2815 
Q 2500 3097 2075 3097 
Q 1594 3097 1305 2825 
Q 1016 2553 972 2059 
L 3022 2063 
z
" transform="scale(0.015625)"/>
      </defs>
      <use xlink:href="#DejaVuSans-55"/>
      <use xlink:href="#DejaVuSans-6e" x="73.193359"/>
      <use xlink:href="#DejaVuSans-73" x="136.572266"/>
      <use xlink:href="#DejaVuSans-61" x="188.671875"/>
      <use xlink:href="#DejaVuSans-66" x="249.951172"/>
      <use xlink:href="#DejaVuSans-65" x="285.15625"/>
     </g>
    </g>
   </g>
  </g>
 </g>
 <defs>
  <clipPath id="p9b949111b3">
   <rect x="38.482813" y="7.2" width="357.12" height="266.112"/>
  </clipPath>
 </defs>
</svg>
